<svg
  width="32"
  height="31"
  viewBox="0 0 32 31"
  fill="none"
  xmlns="http://www.w3.org/2000/svg"
>
<circle
    r="15.5"
    transform="matrix(-1 0 0 1 16.1865 15.5)"
    fill="#898F97"
    fill-opacity="0.15"
  />
<path
    fill-rule="evenodd"
    clip-rule="evenodd"
    d="M7.68718 17.0004C7.68718 18.3463 8.59146 19.4003 10.0871 19.4003H12.5454L12.5231 19.4608C12.5009 19.521 12.4382 19.6861 12.3774 19.8465L12.3774 19.8465C12.3235 19.9885 12.2711 20.1267 12.2493 20.1851C12.0972 20.5934 11.9862 20.9223 11.8964 21.2481C11.7607 21.7404 11.687 22.184 11.687 22.6001C11.687 23.7777 12.4135 24.509 13.4883 24.822C13.9731 24.9632 14.395 25.0001 14.8869 25H15.2704L15.5106 24.7009C15.7819 24.363 16.3148 23.7541 16.9291 23.0521L16.9291 23.0521L16.9292 23.0521C18.0625 21.757 19.4731 20.1451 20.0303 19.3335C20.1749 19.3765 20.3281 19.3995 20.4866 19.3995H22.0865C22.9701 19.3995 23.6865 18.6832 23.6865 17.7996V10.5999C23.6865 9.71631 22.9701 9 22.0865 9H20.4866C19.9369 9 19.452 9.2772 19.164 9.69943C18.9213 9.54247 18.6505 9.41146 18.3562 9.30616C17.6824 9.06507 17.0141 8.99104 16.4593 9.00119L10.887 9.00072C8.68302 9.00072 7.68718 12.2457 7.68718 17.0004ZM17.8172 10.8126C18.5251 11.0658 18.8867 11.4788 18.8867 12.2006V17.7996V17.8003C18.8867 17.9925 18.8511 18.1626 18.7733 18.3443C18.6335 18.6707 17.3652 20.1177 16.1631 21.4892L16.1631 21.4892C15.5426 22.1971 14.9398 22.8848 14.5189 23.388C14.3178 23.3729 14.1282 23.342 13.9356 23.2859C13.4772 23.1524 13.2869 22.9609 13.2869 22.6001C13.2869 22.3469 13.3382 22.0383 13.4388 21.6733C13.514 21.4005 13.6114 21.1119 13.7486 20.7437C13.768 20.6914 13.8166 20.5634 13.8683 20.4272L13.8684 20.4269L13.8691 20.4249C13.9318 20.2597 13.9989 20.083 14.0237 20.0158C14.1278 19.7345 14.1963 19.5274 14.2432 19.3392C14.4424 18.5392 14.2425 17.8003 13.2869 17.8003H10.0871C9.53412 17.8003 9.2871 17.5124 9.28711 17.0004C9.28711 13.1679 10.075 10.6006 10.887 10.6006H16.4868L16.5163 10.6002C16.8665 10.5939 17.3582 10.6484 17.8172 10.8126ZM22.0865 10.5999V17.7996H20.4866V10.5999H22.0865Z"
    fill="#898F97"
  />
</svg>
