<svg viewBox="0 0 375 812" fill="none" xmlns="http://www.w3.org/2000/svg">
<g opacity="0.2" clip-path="url(#clip0_148_297)">
<path
      d="M837.208 -113.476C837.208 -113.476 713.919 -84.0431 600.065 35.3012C486.212 154.645 519.735 156.012 409.855 224.936C299.974 293.86 238.392 370.235 270.549 486.847C302.706 603.459 299.974 618.114 322.819 738.7C345.665 859.286 435.307 1056.25 616.206 1146.04C797.105 1235.82 708.58 1139.33 926.975 1212.97C1026.05 1212.97 1046.17 1170.13 1086.39 1174.1C1126.62 1178.08 1156.05 1225.02 1220.36 1200.93C1284.68 1176.83 1517.72 927.589 1545.9 773.472C1574.09 619.356 1578.06 500.135 1523.18 391.595C1468.31 283.055 1449.56 258.963 1330.24 185.196C1211.05 111.552 1138.66 0.280287 1043.56 -45.2966C948.454 -90.8734 902.764 -118.816 837.208 -113.476Z"
      stroke="white"
      stroke-miterlimit="10"
    />
<path
      d="M818.832 -271.566C818.832 -271.566 666.242 -235.055 525.198 -87.396C384.154 60.263 425.623 62.1258 289.545 147.567C153.467 233.008 77.1099 327.515 116.965 471.945C156.82 616.375 153.467 634.631 181.651 783.904C209.835 933.178 321.081 1177.21 545.063 1288.48C769.045 1399.75 659.537 1280.16 929.954 1371.44C1052.75 1371.44 1077.58 1318.28 1127.37 1323.25C1177.15 1328.22 1213.66 1386.34 1293.24 1356.41C1372.83 1326.48 1661.62 1017.87 1696.38 826.997C1731.15 636.121 1736.24 488.462 1668.2 353.967C1600.16 219.596 1576.94 189.667 1429.32 98.3886C1281.7 7.11074 1192.05 -130.613 1074.23 -187.119C956.4 -243.624 900.156 -278.272 818.832 -271.566Z"
      stroke="white"
      stroke-miterlimit="10"
    />
<path
      d="M805.299 -388.178C805.299 -388.178 630.981 -346.451 469.947 -177.805C308.914 -9.1578 356.218 -7.04662 200.896 90.4407C45.5736 187.928 -41.7098 295.971 3.73219 460.892C49.1742 625.813 45.4494 646.677 77.6065 817.187C109.764 987.696 236.778 1266.37 492.544 1393.42C748.311 1520.46 623.283 1383.98 932.189 1488.17C1072.36 1488.17 1100.8 1427.57 1157.66 1433.16C1214.53 1438.87 1256.24 1505.19 1347.13 1471.03C1438.14 1436.88 1767.78 1084.44 1807.63 866.365C1847.49 648.291 1853.07 479.769 1775.47 326.149C1697.87 172.529 1671.3 138.501 1502.57 34.3079C1333.84 -69.8855 1231.66 -227.231 1097.07 -291.685C962.484 -356.138 898.17 -395.754 805.299 -388.178Z"
      stroke="white"
      stroke-miterlimit="10"
    />
<path
      d="M791.269 -509.386C791.269 -509.386 594.478 -462.318 412.586 -271.815C230.694 -81.3109 284.206 -78.9513 108.77 31.2031C-66.6657 141.357 -165.123 263.31 -113.722 449.467C-62.3201 635.624 -66.6657 659.22 -30.2872 851.835C6.0912 1044.45 149.494 1359.02 438.287 1502.45C727.08 1645.89 585.911 1491.77 934.673 1609.5C1092.97 1609.5 1125.13 1541.08 1189.32 1547.41C1253.51 1553.87 1300.57 1628.75 1403.25 1590.25C1505.93 1551.76 1878.28 1153.61 1923.22 907.595C1968.17 661.455 1974.62 470.951 1886.84 297.71C1799.06 124.468 1769.14 85.8456 1578.68 -31.8843C1388.22 -149.614 1272.76 -327.202 1120.79 -399.976C968.816 -472.75 896.183 -517.955 791.269 -509.386Z"
      stroke="white"
      stroke-miterlimit="10"
    />
</g>
<defs>
<clipPath id="clip0_148_297">
<rect
        width="2084"
        height="2121"
        fill="white"
        transform="translate(-128 -511)"
      />
</clipPath>
</defs>
</svg>
