<svg
  width="31"
  height="31"
  viewBox="0 0 31 31"
  fill="none"
  xmlns="http://www.w3.org/2000/svg"
>
<circle cx="15.5" cy="15.5" r="15.5" fill="#459221" fill-opacity="0.15" />
<path
    fill-rule="evenodd"
    clip-rule="evenodd"
    d="M8.00001 14.9996C8.00001 13.6537 8.90429 12.5997 10.3999 12.5997L12.8582 12.5997L12.836 12.5392C12.8137 12.479 12.7511 12.3139 12.6902 12.1535L12.6902 12.1535C12.6364 12.0115 12.5839 11.8733 12.5621 11.8149C12.41 11.4066 12.2991 11.0777 12.2092 10.7519C12.0735 10.2596 11.9998 9.81596 11.9998 9.39989C11.9998 8.22234 12.7263 7.49095 13.8011 7.17798C14.2859 7.03682 14.7079 6.99993 15.1997 7L15.5833 7L15.8234 7.29909C16.0947 7.63695 16.6276 8.24585 17.2419 8.94784L17.242 8.94792C18.3753 10.243 19.786 11.8549 20.3432 12.6665C20.4878 12.6235 20.6409 12.6005 20.7994 12.6005L22.3994 12.6005C23.283 12.6005 23.9993 13.3168 23.9993 14.2004L23.9993 21.4001C23.9993 22.2837 23.283 23 22.3994 23L20.7994 23C20.2498 23 19.7648 22.7228 19.4768 22.3006C19.2341 22.4575 18.9633 22.5885 18.669 22.6938C17.9952 22.9349 17.3269 23.009 16.7721 22.9988L11.1999 22.9993C8.99585 22.9993 8.00001 19.7543 8.00001 14.9996ZM18.1301 21.1874C18.838 20.9342 19.1995 20.5212 19.1995 19.7994L19.1995 14.2004L19.1995 14.1997C19.1995 14.0075 19.164 13.8374 19.0861 13.6557C18.9464 13.3293 17.678 11.8823 16.4759 10.5108L16.4759 10.5108C15.8555 9.80293 15.2527 9.1152 14.8317 8.61203C14.6306 8.62712 14.441 8.65803 14.2484 8.71411C13.79 8.84759 13.5998 9.03913 13.5998 9.39989C13.5998 9.65315 13.651 9.96172 13.7516 10.3267C13.8268 10.5995 13.9242 10.8881 14.0614 11.2563C14.0809 11.3086 14.1295 11.4366 14.1811 11.5728L14.1812 11.5731L14.182 11.5751C14.2447 11.7403 14.3117 11.917 14.3366 11.9842C14.4406 12.2655 14.5091 12.4726 14.556 12.6608C14.7553 13.4608 14.5554 14.1997 13.5998 14.1997L10.3999 14.1997C9.84695 14.1997 9.59994 14.4876 9.59994 14.9996C9.59994 18.8321 10.3878 21.3994 11.1999 21.3994L16.7996 21.3994L16.8292 21.3998C17.1793 21.4061 17.6711 21.3516 18.1301 21.1874ZM22.3994 21.4001L22.3994 14.2004L20.7994 14.2004L20.7994 21.4001L22.3994 21.4001Z"
    fill="#459221"
  />
</svg>
