<svg
  width="13"
  height="21"
  viewBox="0 0 13 21"
  fill="none"
  xmlns="http://www.w3.org/2000/svg"
>
<path
    fill-rule="evenodd"
    clip-rule="evenodd"
    d="M0 2C0 0.89543 0.895431 0 2 0V0C3.10457 0 4 0.895431 4 2V19C4 20.1046 3.10457 21 2 21V21C0.895431 21 0 20.1046 0 19V2Z"
    fill="white"
  />
<path
    fill-rule="evenodd"
    clip-rule="evenodd"
    d="M9 2C9 0.89543 9.89543 0 11 0V0C12.1046 0 13 0.895431 13 2V19C13 20.1046 12.1046 21 11 21V21C9.89543 21 9 20.1046 9 19V2Z"
    fill="white"
  />
</svg>
