<svg
  width="17"
  height="23"
  viewBox="0 0 17 23"
  fill="none"
  xmlns="http://www.w3.org/2000/svg"
>
<path
    fill-rule="evenodd"
    clip-rule="evenodd"
    d="M8.00942 0.271881C10.2186 0.271881 12.0094 2.06274 12.0094 4.27188V11.2719C12.0094 13.481 10.2186 15.2719 8.00942 15.2719C5.80028 15.2719 4.00942 13.481 4.00942 11.2719V4.27188C4.00942 2.06274 5.80028 0.271881 8.00942 0.271881ZM9.00946 19.21V20.2719H12.0095V22.2719H4.00946V20.2719H7.00946V19.21C3.06315 18.7179 0.00946045 15.3515 0.00946045 11.2719V9.27188H2.00946V11.2719C2.00946 14.5856 4.69575 17.2719 8.00946 17.2719C11.3232 17.2719 14.0095 14.5856 14.0095 11.2719V9.27188H16.0095V11.2719C16.0095 15.3515 12.9558 18.7179 9.00946 19.21ZM6.00945 4.27188C6.00945 3.16731 6.90488 2.27188 8.00945 2.27188C9.11402 2.27188 10.0095 3.16731 10.0095 4.27188V11.2719C10.0095 12.3765 9.11402 13.2719 8.00945 13.2719C6.90488 13.2719 6.00945 12.3765 6.00945 11.2719V4.27188Z"
    fill="#898F97"
  />
</svg>
