<svg
  width="14"
  height="14"
  viewBox="0 0 14 14"
  fill="none"
  xmlns="http://www.w3.org/2000/svg"
>
<path
    fill-rule="evenodd"
    clip-rule="evenodd"
    d="M7.41583 13.8552C3.82598 13.8552 0.915833 10.9451 0.915833 7.35522C0.915833 3.76537 3.82598 0.855225 7.41583 0.855225C11.0057 0.855225 13.9158 3.76537 13.9158 7.35522C13.9158 10.9451 11.0057 13.8552 7.41583 13.8552ZM7.41583 12.6734C10.353 12.6734 12.734 10.2924 12.734 7.35522C12.734 4.41807 10.353 2.03704 7.41583 2.03704C4.47868 2.03704 2.09765 4.41807 2.09765 7.35522C2.09765 10.2924 4.47868 12.6734 7.41583 12.6734ZM10.3704 6.76432H8.00674V3.80977H6.82492V7.94614H10.3704V6.76432Z"
    fill="#898F97"
  />
</svg>
